<?xml version="1.0" encoding="UTF-8"?>
<!DOCTYPE svg PUBLIC "-//W3C//DTD SVG 1.1//EN" "http://www.w3.org/Graphics/SVG/1.1/DTD/svg11.dtd">
<svg xmlns="http://www.w3.org/2000/svg" version="1.1" width="512px" height="512px" style="shape-rendering:geometricPrecision; text-rendering:geometricPrecision; image-rendering:optimizeQuality; fill-rule:evenodd; clip-rule:evenodd" xmlns:xlink="http://www.w3.org/1999/xlink">
<g><path style="opacity:1" fill="#009ca2" d="M -0.5,-0.5 C 26.8333,-0.5 54.1667,-0.5 81.5,-0.5C 81.8134,2.24688 81.48,4.91355 80.5,7.5C 77.7248,5.39272 74.7248,5.05939 71.5,6.5C 73.7662,7.31416 76.0995,7.81416 78.5,8C 76.5,10.3333 74.5,12.6667 72.5,15C 73.7825,17.7947 73.7825,20.6281 72.5,23.5C 71.0222,12.8927 69.8555,12.8927 69,23.5C 68,25.8333 66.3333,27.5 64,28.5C 63.6667,30.5 63.3333,32.5 63,34.5C 58.0708,37.3997 56.2374,41.733 57.5,47.5C 56.448,47.3505 55.448,47.5172 54.5,48C 52.5,50.3333 50.5,52.6667 48.5,55C 49.7825,57.7947 49.7825,60.6281 48.5,63.5C 47.7227,57.618 45.7227,57.4514 42.5,63C 43.8333,63.3333 45.1667,63.6667 46.5,64C 41.9775,69.0276 37.8109,74.1943 34,79.5C 33.5026,82.146 33.3359,84.8127 33.5,87.5C 32.1667,87.5 30.8333,87.5 29.5,87.5C 29.5,90.1667 29.5,92.8333 29.5,95.5C 28.1667,95.5 26.8333,95.5 25.5,95.5C 25.5,98.1667 25.5,100.833 25.5,103.5C 24.448,103.351 23.448,103.517 22.5,104C 20.5,106.333 18.5,108.667 16.5,111C 17.7825,113.795 17.7825,116.628 16.5,119.5C 15.7227,113.618 13.7227,113.451 10.5,119C 11.8333,119.333 13.1667,119.667 14.5,120C 12.1814,123.318 9.51478,126.318 6.5,129C 5.53004,132.244 4.36338,135.41 3,138.5C 1.88732,139.305 0.72065,139.972 -0.5,140.5C -0.5,93.5 -0.5,46.5 -0.5,-0.5 Z"/></g>
<g><path style="opacity:1" fill="#00999e" d="M 81.5,-0.5 C 120.5,-0.5 159.5,-0.5 198.5,-0.5C 196.629,2.06081 194.629,4.56081 192.5,7C 193.444,9.71914 193.777,12.5525 193.5,15.5C 191.5,15.5 189.5,15.5 187.5,15.5C 187.5,18.1667 187.5,20.8333 187.5,23.5C 185.5,23.5 183.5,23.5 181.5,23.5C 181.5,26.1667 181.5,28.8333 181.5,31.5C 180.167,31.5 178.833,31.5 177.5,31.5C 177.5,34.1667 177.5,36.8333 177.5,39.5C 176.448,39.3505 175.448,39.5172 174.5,40C 172.5,42.3333 170.5,44.6667 168.5,47C 169.783,49.7947 169.783,52.6281 168.5,55.5C 167.723,49.618 165.723,49.4514 162.5,55C 163.833,55.3333 165.167,55.6667 166.5,56C 164.5,58.3333 162.5,60.6667 160.5,63C 161.783,65.7947 161.783,68.6281 160.5,71.5C 157.725,69.3927 154.725,69.0594 151.5,70.5C 153.078,71.2978 154.744,71.7978 156.5,72C 154.239,74.2955 152.239,76.7955 150.5,79.5C 149.52,82.0865 149.187,84.7531 149.5,87.5C 148.167,87.5 146.833,87.5 145.5,87.5C 145.813,90.2469 145.48,92.9135 144.5,95.5C 142.493,98.2649 140.326,100.932 138,103.5C 137.503,106.146 137.336,108.813 137.5,111.5C 135.5,111.5 133.5,111.5 131.5,111.5C 131.5,114.167 131.5,116.833 131.5,119.5C 129.5,119.5 127.5,119.5 125.5,119.5C 125.223,122.448 125.556,125.281 126.5,128C 121.978,133.028 117.811,138.194 114,143.5C 113.503,146.146 113.336,148.813 113.5,151.5C 115.527,151.338 117.527,151.505 119.5,152C 115.054,152.528 110.721,153.528 106.5,155C 107.949,156.117 109.616,156.784 111.5,157C 108.635,157.183 105.969,157.683 103.5,158.5C 121.993,159.497 140.659,159.83 159.5,159.5C 159.5,159.833 159.5,160.167 159.5,160.5C 140.833,160.5 122.167,160.5 103.5,160.5C 103.185,164.371 103.518,168.038 104.5,171.5C 108.909,172.598 113.242,173.598 117.5,174.5C 116.903,174.735 116.57,175.235 116.5,176C 117.455,182.464 121.121,185.297 127.5,184.5C 127.5,185.5 127.5,186.5 127.5,187.5C 126.07,187.579 124.736,187.246 123.5,186.5C 122.409,188.015 121.076,188.848 119.5,189C 117.167,184.5 114.833,180 112.5,175.5C 107.507,175.133 102.84,173.8 98.5,171.5C 96.6274,171.482 96.2941,171.982 97.5,173C 93.6987,175.869 92.6987,179.536 94.5,184C 92.5,186.333 90.5,188.667 88.5,191C 87.552,191.483 86.552,191.649 85.5,191.5C 85.5,194.167 85.5,196.833 85.5,199.5C 84.1667,199.5 82.8333,199.5 81.5,199.5C 81.5,202.167 81.5,204.833 81.5,207.5C 80.448,207.351 79.448,207.517 78.5,208C 76.5,210.333 74.5,212.667 72.5,215C 73.7825,217.795 73.7825,220.628 72.5,223.5C 71.8333,220.833 71.1667,218.167 70.5,215.5C 69.2175,218.372 69.2175,221.205 70.5,224C 68.5,226.333 66.5,228.667 64.5,231C 63.552,231.483 62.552,231.649 61.5,231.5C 61.6641,234.187 61.4974,236.854 61,239.5C 60.6322,240.91 59.7989,241.91 58.5,242.5C 57.5481,244.045 57.2148,245.712 57.5,247.5C 56.1667,247.5 54.8333,247.5 53.5,247.5C 53.5,250.167 53.5,252.833 53.5,255.5C 52.1667,255.5 50.8333,255.5 49.5,255.5C 49.5,258.167 49.5,260.833 49.5,263.5C 48.448,263.351 47.448,263.517 46.5,264C 44.5,266.333 42.5,268.667 40.5,271C 41.7825,273.795 41.7825,276.628 40.5,279.5C 39.0222,268.893 37.8555,268.893 37,279.5C 36,281.833 34.3333,283.5 32,284.5C 31.6667,286.5 31.3333,288.5 31,290.5C 26.0708,293.4 24.2374,297.733 25.5,303.5C 24.448,303.351 23.448,303.517 22.5,304C 20.5,306.333 18.5,308.667 16.5,311C 17.7825,313.795 17.7825,316.628 16.5,319.5C 15.8333,316.833 15.1667,314.167 14.5,311.5C 13.2175,314.372 13.2175,317.205 14.5,320C 12.1814,323.318 9.51478,326.318 6.5,329C 5.53004,332.244 4.36338,335.41 3,338.5C 1.88732,339.305 0.72065,339.972 -0.5,340.5C -0.5,273.833 -0.5,207.167 -0.5,140.5C 0.72065,139.972 1.88732,139.305 3,138.5C 4.36338,135.41 5.53004,132.244 6.5,129C 9.51478,126.318 12.1814,123.318 14.5,120C 13.1667,119.667 11.8333,119.333 10.5,119C 13.7227,113.451 15.7227,113.618 16.5,119.5C 17.7825,116.628 17.7825,113.795 16.5,111C 18.5,108.667 20.5,106.333 22.5,104C 23.448,103.517 24.448,103.351 25.5,103.5C 25.5,100.833 25.5,98.1667 25.5,95.5C 26.8333,95.5 28.1667,95.5 29.5,95.5C 29.5,92.8333 29.5,90.1667 29.5,87.5C 30.8333,87.5 32.1667,87.5 33.5,87.5C 33.3359,84.8127 33.5026,82.146 34,79.5C 37.8109,74.1943 41.9775,69.0276 46.5,64C 45.1667,63.6667 43.8333,63.3333 42.5,63C 45.7227,57.4514 47.7227,57.618 48.5,63.5C 49.7825,60.6281 49.7825,57.7947 48.5,55C 50.5,52.6667 52.5,50.3333 54.5,48C 55.448,47.5172 56.448,47.3505 57.5,47.5C 56.2374,41.733 58.0708,37.3997 63,34.5C 63.3333,32.5 63.6667,30.5 64,28.5C 66.3333,27.5 68,25.8333 69,23.5C 69.8555,12.8927 71.0222,12.8927 72.5,23.5C 73.7825,20.6281 73.7825,17.7947 72.5,15C 74.5,12.6667 76.5,10.3333 78.5,8C 76.0995,7.81416 73.7662,7.31416 71.5,6.5C 74.7248,5.05939 77.7248,5.39272 80.5,7.5C 81.48,4.91355 81.8134,2.24688 81.5,-0.5 Z"/></g>
<g><path style="opacity:1" fill="#00969b" d="M 198.5,-0.5 C 211.167,-0.5 223.833,-0.5 236.5,-0.5C 235.891,1.94333 234.391,3.61 232,4.5C 231.667,6.5 231.333,8.5 231,10.5C 226.071,13.3997 224.237,17.733 225.5,23.5C 224.448,23.3505 223.448,23.5172 222.5,24C 220.5,26.3333 218.5,28.6667 216.5,31C 217.444,33.7191 217.777,36.5525 217.5,39.5C 214.833,39.5 212.167,39.5 209.5,39.5C 209.813,42.2469 209.48,44.9135 208.5,47.5C 206.493,50.2649 204.326,52.9315 202,55.5C 201.776,59.3974 200.776,63.0641 199,66.5C 194.071,69.3997 192.237,73.733 193.5,79.5C 192.448,79.3505 191.448,79.5172 190.5,80C 188.5,82.3333 186.5,84.6667 184.5,87C 185.783,89.7947 185.783,92.6281 184.5,95.5C 183.833,92.8333 183.167,90.1667 182.5,87.5C 180.857,92.7337 179.857,98.067 179.5,103.5C 178.167,103.5 176.833,103.5 175.5,103.5C 175.649,104.552 175.483,105.552 175,106.5C 172.667,107.5 171,109.167 170,111.5C 169.776,115.397 168.776,119.064 167,122.5C 162.071,125.4 160.237,129.733 161.5,135.5C 160.448,135.351 159.448,135.517 158.5,136C 156.5,138.333 154.5,140.667 152.5,143C 151.552,143.483 150.552,143.649 149.5,143.5C 149.012,146.711 149.679,149.544 151.5,152C 147.936,152.837 145.269,154.003 143.5,155.5C 143.5,156.5 143.5,157.5 143.5,158.5C 130.176,157.44 116.842,157.44 103.5,158.5C 105.969,157.683 108.635,157.183 111.5,157C 109.616,156.784 107.949,156.117 106.5,155C 110.721,153.528 115.054,152.528 119.5,152C 117.527,151.505 115.527,151.338 113.5,151.5C 113.336,148.813 113.503,146.146 114,143.5C 117.811,138.194 121.978,133.028 126.5,128C 125.556,125.281 125.223,122.448 125.5,119.5C 127.5,119.5 129.5,119.5 131.5,119.5C 131.5,116.833 131.5,114.167 131.5,111.5C 133.5,111.5 135.5,111.5 137.5,111.5C 137.336,108.813 137.503,106.146 138,103.5C 140.326,100.932 142.493,98.2649 144.5,95.5C 145.48,92.9135 145.813,90.2469 145.5,87.5C 146.833,87.5 148.167,87.5 149.5,87.5C 149.187,84.7531 149.52,82.0865 150.5,79.5C 152.239,76.7955 154.239,74.2955 156.5,72C 154.744,71.7978 153.078,71.2978 151.5,70.5C 154.725,69.0594 157.725,69.3927 160.5,71.5C 161.783,68.6281 161.783,65.7947 160.5,63C 162.5,60.6667 164.5,58.3333 166.5,56C 165.167,55.6667 163.833,55.3333 162.5,55C 165.723,49.4514 167.723,49.618 168.5,55.5C 169.783,52.6281 169.783,49.7947 168.5,47C 170.5,44.6667 172.5,42.3333 174.5,40C 175.448,39.5172 176.448,39.3505 177.5,39.5C 177.5,36.8333 177.5,34.1667 177.5,31.5C 178.833,31.5 180.167,31.5 181.5,31.5C 181.5,28.8333 181.5,26.1667 181.5,23.5C 183.5,23.5 185.5,23.5 187.5,23.5C 187.5,20.8333 187.5,18.1667 187.5,15.5C 189.5,15.5 191.5,15.5 193.5,15.5C 193.777,12.5525 193.444,9.71914 192.5,7C 194.629,4.56081 196.629,2.06081 198.5,-0.5 Z"/></g>
<g><path style="opacity:1" fill="#019297" d="M 236.5,-0.5 C 280.167,-0.5 323.833,-0.5 367.5,-0.5C 367.649,0.551975 367.483,1.55198 367,2.5C 362.071,5.39968 360.237,9.73302 361.5,15.5C 360.448,15.3505 359.448,15.5172 358.5,16C 356.5,18.3333 354.5,20.6667 352.5,23C 353.444,25.7191 353.777,28.5525 353.5,31.5C 352.448,31.3505 351.448,31.5172 350.5,32C 348.5,34.3333 346.5,36.6667 344.5,39C 343.552,39.4828 342.552,39.6495 341.5,39.5C 341.5,42.1667 341.5,44.8333 341.5,47.5C 340.167,47.5 338.833,47.5 337.5,47.5C 337.5,50.1667 337.5,52.8333 337.5,55.5C 336.448,55.3505 335.448,55.5172 334.5,56C 332.5,58.3333 330.5,60.6667 328.5,63C 329.444,65.7191 329.777,68.5525 329.5,71.5C 327.5,71.5 325.5,71.5 323.5,71.5C 323.517,74.9205 323.683,78.2538 324,81.5C 323.667,81.8333 323.333,82.1667 323,82.5C 322.311,81.6433 321.478,80.9767 320.5,80.5C 318.259,82.4517 316.259,84.6184 314.5,87C 315.133,90.459 315.8,93.959 316.5,97.5C 317.183,97.8627 317.85,98.1961 318.5,98.5C 313.621,106.472 310.954,115.138 310.5,124.5C 309.778,124.918 309.278,125.584 309,126.5C 308.667,139.833 308.333,153.167 308,166.5C 306.992,150.061 305.992,133.728 305,117.5C 304.333,115.5 303.667,113.5 303,111.5C 302.265,113.871 301.432,116.205 300.5,118.5C 299.675,119.386 298.675,119.719 297.5,119.5C 297.5,122.167 297.5,124.833 297.5,127.5C 295.833,127.5 294.167,127.5 292.5,127.5C 292.5,130.167 292.5,132.833 292.5,135.5C 290.167,135.5 287.833,135.5 285.5,135.5C 285.167,140.833 284.833,146.167 284.5,151.5C 282.833,151.5 281.167,151.5 279.5,151.5C 279.649,152.552 279.483,153.552 279,154.5C 274.386,157.484 272.219,161.817 272.5,167.5C 271.833,167.833 271.167,168.167 270.5,168.5C 269.316,166.954 268.316,165.287 267.5,163.5C 266.28,163.887 265.613,164.72 265.5,166C 266.697,168.361 268.363,170.361 270.5,172C 269.484,172.519 268.818,173.353 268.5,174.5C 269.135,175.966 269.969,177.3 271,178.5C 271.875,176.487 273.209,176.487 275,178.5C 275.718,177.549 276.551,177.383 277.5,178C 278.104,180.468 279.438,182.468 281.5,184C 280.584,184.374 279.75,184.874 279,185.5C 277.654,182.821 275.654,180.821 273,179.5C 271.699,180.098 270.865,181.098 270.5,182.5C 273.257,183.753 275.591,185.587 277.5,188C 276.701,189.749 277.368,191.082 279.5,192C 277.984,193.897 277.317,196.064 277.5,198.5C 269.337,181.181 256.004,169.681 237.5,164C 230.259,162.152 222.926,160.818 215.5,160C 196.836,159.5 178.17,159.333 159.5,159.5C 140.659,159.83 121.993,159.497 103.5,158.5C 116.842,157.44 130.176,157.44 143.5,158.5C 143.5,157.5 143.5,156.5 143.5,155.5C 145.269,154.003 147.936,152.837 151.5,152C 149.679,149.544 149.012,146.711 149.5,143.5C 150.552,143.649 151.552,143.483 152.5,143C 154.5,140.667 156.5,138.333 158.5,136C 159.448,135.517 160.448,135.351 161.5,135.5C 160.237,129.733 162.071,125.4 167,122.5C 168.776,119.064 169.776,115.397 170,111.5C 171,109.167 172.667,107.5 175,106.5C 175.483,105.552 175.649,104.552 175.5,103.5C 176.833,103.5 178.167,103.5 179.5,103.5C 179.857,98.067 180.857,92.7337 182.5,87.5C 183.167,90.1667 183.833,92.8333 184.5,95.5C 185.783,92.6281 185.783,89.7947 184.5,87C 186.5,84.6667 188.5,82.3333 190.5,80C 191.448,79.5172 192.448,79.3505 193.5,79.5C 192.237,73.733 194.071,69.3997 199,66.5C 200.776,63.0641 201.776,59.3974 202,55.5C 204.326,52.9315 206.493,50.2649 208.5,47.5C 209.48,44.9135 209.813,42.2469 209.5,39.5C 212.167,39.5 214.833,39.5 217.5,39.5C 217.777,36.5525 217.444,33.7191 216.5,31C 218.5,28.6667 220.5,26.3333 222.5,24C 223.448,23.5172 224.448,23.3505 225.5,23.5C 224.237,17.733 226.071,13.3997 231,10.5C 231.333,8.5 231.667,6.5 232,4.5C 234.391,3.61 235.891,1.94333 236.5,-0.5 Z"/></g>
<g><path style="opacity:1" fill="#038c91" d="M 367.5,-0.5 C 404.5,-0.5 441.5,-0.5 478.5,-0.5C 476.581,2.31938 474.415,4.98605 472,7.5C 471.503,10.146 471.336,12.8127 471.5,15.5C 469.5,15.5 467.5,15.5 465.5,15.5C 465.5,18.1667 465.5,20.8333 465.5,23.5C 464.167,23.5 462.833,23.5 461.5,23.5C 461.5,26.1667 461.5,28.8333 461.5,31.5C 460.167,31.5 458.833,31.5 457.5,31.5C 457.5,34.1667 457.5,36.8333 457.5,39.5C 456.448,39.3505 455.448,39.5172 454.5,40C 452.451,42.5934 450.285,45.0934 448,47.5C 447.667,51.5 447.333,55.5 447,59.5C 446,58.1667 445,56.8333 444,55.5C 441.03,60.4346 439.53,65.7679 439.5,71.5C 437.5,71.5 435.5,71.5 433.5,71.5C 433.5,74.1667 433.5,76.8333 433.5,79.5C 432.167,79.5 430.833,79.5 429.5,79.5C 429.5,82.1667 429.5,84.8333 429.5,87.5C 428.167,87.5 426.833,87.5 425.5,87.5C 425.5,90.1667 425.5,92.8333 425.5,95.5C 424.167,95.5 422.833,95.5 421.5,95.5C 421.5,98.1667 421.5,100.833 421.5,103.5C 414.357,101.203 412.357,103.536 415.5,110.5C 415,110.833 414.5,111.167 414,111.5C 412.337,110.01 410.67,109.344 409,109.5C 408.812,111.061 409.645,111.728 411.5,111.5C 411.5,114.167 411.5,116.833 411.5,119.5C 409.856,119.286 408.356,119.62 407,120.5C 405.711,123.351 405.211,126.351 405.5,129.5C 408.157,129.838 410.49,129.171 412.5,127.5C 413.478,127.977 414.311,128.643 415,129.5C 416.049,127.893 417.549,127.227 419.5,127.5C 419.5,132.833 419.5,138.167 419.5,143.5C 417.473,143.662 415.473,143.495 413.5,143C 414.357,142.311 415.023,141.478 415.5,140.5C 406.514,137.464 397.181,136.13 387.5,136.5C 381.453,136.502 375.453,137.002 369.5,138C 379.833,138.333 390.167,138.667 400.5,139C 401.756,139.417 402.423,140.25 402.5,141.5C 388.5,141.5 374.5,141.5 360.5,141.5C 360.5,147.167 360.5,152.833 360.5,158.5C 368.833,158.5 377.167,158.5 385.5,158.5C 385.5,162.5 385.5,166.5 385.5,170.5C 383.116,190.55 371.782,199.383 351.5,197C 336.272,191.756 329.105,180.923 330,164.5C 329.145,149.467 329.478,134.467 331,119.5C 332.808,108.848 338.641,101.515 348.5,97.5C 353.438,96.6076 358.438,96.2743 363.5,96.5C 373.384,97.8794 380.217,103.213 384,112.5C 384.725,113.059 385.558,113.392 386.5,113.5C 391.274,111.947 395.94,110.114 400.5,108C 401.554,106.612 401.72,105.112 401,103.5C 394.42,90.4554 383.92,82.622 369.5,80C 353.742,76.8498 339.409,79.8498 326.5,89C 323.246,91.7468 320.58,94.9135 318.5,98.5C 317.85,98.1961 317.183,97.8627 316.5,97.5C 315.8,93.959 315.133,90.459 314.5,87C 316.259,84.6184 318.259,82.4517 320.5,80.5C 321.478,80.9767 322.311,81.6433 323,82.5C 323.333,82.1667 323.667,81.8333 324,81.5C 323.683,78.2538 323.517,74.9205 323.5,71.5C 325.5,71.5 327.5,71.5 329.5,71.5C 329.777,68.5525 329.444,65.7191 328.5,63C 330.5,60.6667 332.5,58.3333 334.5,56C 335.448,55.5172 336.448,55.3505 337.5,55.5C 337.5,52.8333 337.5,50.1667 337.5,47.5C 338.833,47.5 340.167,47.5 341.5,47.5C 341.5,44.8333 341.5,42.1667 341.5,39.5C 342.552,39.6495 343.552,39.4828 344.5,39C 346.5,36.6667 348.5,34.3333 350.5,32C 351.448,31.5172 352.448,31.3505 353.5,31.5C 353.777,28.5525 353.444,25.7191 352.5,23C 354.5,20.6667 356.5,18.3333 358.5,16C 359.448,15.5172 360.448,15.3505 361.5,15.5C 360.237,9.73302 362.071,5.39968 367,2.5C 367.483,1.55198 367.649,0.551975 367.5,-0.5 Z"/></g>
<g><path style="opacity:1" fill="#00878c" d="M 478.5,-0.5 C 489.5,-0.5 500.5,-0.5 511.5,-0.5C 511.5,52.8333 511.5,106.167 511.5,159.5C 510.167,159.5 508.833,159.5 507.5,159.5C 507.5,167.5 507.5,175.5 507.5,183.5C 504.664,183.798 504.164,183.131 506,181.5C 506.495,179.527 506.662,177.527 506.5,175.5C 503.833,175.5 501.167,175.5 498.5,175.5C 498.884,177.665 498.217,179.332 496.5,180.5C 495.511,184.107 495.177,187.774 495.5,191.5C 493.833,191.5 492.167,191.5 490.5,191.5C 490.662,193.527 490.495,195.527 490,197.5C 488.333,198.833 486.667,200.167 485,201.5C 484.505,203.473 484.338,205.473 484.5,207.5C 482.833,207.5 481.167,207.5 479.5,207.5C 479.335,210.85 479.502,214.183 480,217.5C 481,216.833 482,216.167 483,215.5C 483.497,218.146 483.664,220.813 483.5,223.5C 479.5,223.5 475.5,223.5 471.5,223.5C 471.5,226.167 471.5,228.833 471.5,231.5C 468.833,231.5 466.167,231.5 463.5,231.5C 463.666,236.179 463.499,240.845 463,245.5C 458.136,247.191 455.303,250.524 454.5,255.5C 452.167,255.5 449.833,255.5 447.5,255.5C 447.5,260.833 447.5,266.167 447.5,271.5C 445.833,271.5 444.167,271.5 442.5,271.5C 442.5,274.167 442.5,276.833 442.5,279.5C 443.5,279.5 444.5,279.5 445.5,279.5C 445.5,282.167 445.5,284.833 445.5,287.5C 444.167,287.5 442.833,287.5 441.5,287.5C 441.5,285.5 441.5,283.5 441.5,281.5C 440.127,281.343 438.793,281.51 437.5,282C 434.451,287.178 432.451,292.845 431.5,299C 432.732,303.091 433.399,307.258 433.5,311.5C 431.5,311.5 429.5,311.5 427.5,311.5C 427.813,314.247 427.48,316.914 426.5,319.5C 426.449,313.933 423.949,312.266 419,314.5C 418.506,316.134 418.34,317.801 418.5,319.5C 417.5,319.5 416.5,319.5 415.5,319.5C 416.62,324.058 414.953,326.891 410.5,328C 408.951,329.214 407.785,330.714 407,332.5C 406.532,339.05 404.532,345.05 401,350.5C 399.301,351.406 397.467,351.739 395.5,351.5C 396.042,362.325 395.042,372.992 392.5,383.5C 391.167,372.833 389.833,372.833 388.5,383.5C 387.516,380.572 387.183,377.572 387.5,374.5C 386.167,374.5 384.833,374.5 383.5,374.5C 383.5,377.5 383.5,380.5 383.5,383.5C 382.167,383.5 380.833,383.5 379.5,383.5C 379.5,386.5 379.5,389.5 379.5,392.5C 375.113,392.385 372.78,394.551 372.5,399C 374.134,399.494 375.801,399.66 377.5,399.5C 377.5,402.167 377.5,404.833 377.5,407.5C 375.5,407.5 373.5,407.5 371.5,407.5C 371.5,404.833 371.5,402.167 371.5,399.5C 370.167,399.5 368.833,399.5 367.5,399.5C 367.5,404.833 367.5,410.167 367.5,415.5C 364.833,415.5 362.167,415.5 359.5,415.5C 359.5,418.167 359.5,420.833 359.5,423.5C 356.833,423.5 354.167,423.5 351.5,423.5C 351.5,426.167 351.5,428.833 351.5,431.5C 350.167,431.5 348.833,431.5 347.5,431.5C 347.5,436.833 347.5,442.167 347.5,447.5C 346.167,447.5 344.833,447.5 343.5,447.5C 343.5,449.167 343.5,450.833 343.5,452.5C 345.5,452.5 347.5,452.5 349.5,452.5C 349.5,453.5 349.5,454.5 349.5,455.5C 344.889,454.515 340.222,453.848 335.5,453.5C 335.5,456.833 335.5,460.167 335.5,463.5C 334.5,463.5 333.5,463.5 332.5,463.5C 333.964,469.057 331.964,472.223 326.5,473C 325.034,474.552 324.034,476.386 323.5,478.5C 322.311,479.429 320.978,479.762 319.5,479.5C 319.5,484.833 319.5,490.167 319.5,495.5C 316.833,495.5 314.167,495.5 311.5,495.5C 311.5,498.833 311.5,502.167 311.5,505.5C 314.187,505.336 316.854,505.503 319.5,506C 316.944,507.055 315.277,508.888 314.5,511.5C 271.5,511.5 228.5,511.5 185.5,511.5C 185.262,508.592 186.262,506.258 188.5,504.5C 187.975,503.808 187.308,503.308 186.5,503C 187.333,500.833 188.833,499.333 191,498.5C 191.483,497.552 191.649,496.552 191.5,495.5C 192.833,495.5 194.167,495.5 195.5,495.5C 196.167,490.167 196.833,484.833 197.5,479.5C 198.552,479.649 199.552,479.483 200.5,479C 202.5,476.667 204.5,474.333 206.5,472C 207.448,471.517 208.448,471.351 209.5,471.5C 209.5,468.833 209.5,466.167 209.5,463.5C 210.5,463.5 211.5,463.5 212.5,463.5C 213.626,460.859 214.959,458.193 216.5,455.5C 217.48,452.914 217.813,450.247 217.5,447.5C 218.833,447.5 220.167,447.5 221.5,447.5C 221.5,444.833 221.5,442.167 221.5,439.5C 222.552,439.649 223.552,439.483 224.5,439C 226.5,436.667 228.5,434.333 230.5,432C 229.556,429.281 229.223,426.448 229.5,423.5C 231.5,423.5 233.5,423.5 235.5,423.5C 235.5,420.833 235.5,418.167 235.5,415.5C 237.5,415.5 239.5,415.5 241.5,415.5C 241.857,410.067 242.857,404.734 244.5,399.5C 248.009,397.931 251.676,396.765 255.5,396C 252.989,393.937 250.156,392.437 247,391.5C 245.61,388.101 245.11,384.767 245.5,381.5C 246.7,380.708 248.033,380.708 249.5,381.5C 254.636,387.469 260.303,392.969 266.5,398C 270.808,400.988 275.475,403.155 280.5,404.5C 285.061,407.062 290.061,408.562 295.5,409C 301.349,409.818 307.015,409.652 312.5,408.5C 316.291,408.341 319.958,407.675 323.5,406.5C 324.482,403.038 324.815,399.371 324.5,395.5C 323.167,395.5 321.833,395.5 320.5,395.5C 310.036,394.101 301.036,389.767 293.5,382.5C 294.713,380.324 296.38,379.991 298.5,381.5C 301.923,379.175 303.257,376.175 302.5,372.5C 301.614,373.325 301.281,374.325 301.5,375.5C 298.502,375.249 296.002,376.249 294,378.5C 293.5,378.167 293,377.833 292.5,377.5C 296.602,375.06 296.435,373.06 292,371.5C 290.237,371.975 288.57,372.642 287,373.5C 285.691,371.024 283.858,369.024 281.5,367.5C 280.41,366.391 280.41,365.391 281.5,364.5C 282.826,365.99 284.326,367.324 286,368.5C 286.944,367.737 287.444,366.737 287.5,365.5C 286.286,361.957 284.286,358.957 281.5,356.5C 286.635,350.803 285.801,350.136 279,354.5C 276.031,352.595 275.031,349.928 276,346.5C 277.264,344.393 279.097,343.393 281.5,343.5C 281.5,340.833 281.5,338.167 281.5,335.5C 282.833,335.5 284.167,335.5 285.5,335.5C 285.5,332.833 285.5,330.167 285.5,327.5C 286.833,327.5 288.167,327.5 289.5,327.5C 289.5,324.833 289.5,322.167 289.5,319.5C 290.833,319.5 292.167,319.5 293.5,319.5C 294.468,310.232 295.468,310.232 296.5,319.5C 298.143,314.266 299.143,308.933 299.5,303.5C 301.5,303.5 303.5,303.5 305.5,303.5C 305.777,300.552 305.444,297.719 304.5,295C 306.5,292.667 308.5,290.333 310.5,288C 311.448,287.517 312.448,287.351 313.5,287.5C 312.191,282.32 314.024,278.987 319,277.5C 320.178,273.209 321.178,268.876 322,264.5C 323.586,263.624 325.086,262.624 326.5,261.5C 327.167,262.167 327.833,262.833 328.5,263.5C 329.48,260.914 329.813,258.247 329.5,255.5C 331.5,255.5 333.5,255.5 335.5,255.5C 336.167,250.167 336.833,244.833 337.5,239.5C 338.833,239.5 340.167,239.5 341.5,239.5C 340.185,234.164 342.185,231.497 347.5,231.5C 347.146,228.579 348.146,226.246 350.5,224.5C 349.975,223.808 349.308,223.308 348.5,223C 351.894,222.248 355.227,222.415 358.5,223.5C 360.444,222.811 362.444,222.311 364.5,222C 365.047,221.075 365.713,220.242 366.5,219.5C 372.112,221.272 377.779,221.605 383.5,220.5C 383.5,219.5 383.5,218.5 383.5,217.5C 378.616,217.21 373.949,217.543 369.5,218.5C 361.968,216.806 354.301,215.973 346.5,216C 345.5,215.667 344.5,215.333 343.5,215C 344.094,214.536 344.761,214.369 345.5,214.5C 365.258,218.08 382.091,212.746 396,198.5C 400.231,192.478 402.897,185.811 404,178.5C 405.365,166.547 405.865,154.547 405.5,142.5C 404.791,141.596 403.791,141.263 402.5,141.5C 402.423,140.25 401.756,139.417 400.5,139C 390.167,138.667 379.833,138.333 369.5,138C 375.453,137.002 381.453,136.502 387.5,136.5C 397.181,136.13 406.514,137.464 415.5,140.5C 415.023,141.478 414.357,142.311 413.5,143C 415.473,143.495 417.473,143.662 419.5,143.5C 419.5,138.167 419.5,132.833 419.5,127.5C 417.549,127.227 416.049,127.893 415,129.5C 414.311,128.643 413.478,127.977 412.5,127.5C 410.49,129.171 408.157,129.838 405.5,129.5C 405.211,126.351 405.711,123.351 407,120.5C 408.356,119.62 409.856,119.286 411.5,119.5C 411.5,116.833 411.5,114.167 411.5,111.5C 409.645,111.728 408.812,111.061 409,109.5C 410.67,109.344 412.337,110.01 414,111.5C 414.5,111.167 415,110.833 415.5,110.5C 412.357,103.536 414.357,101.203 421.5,103.5C 421.5,100.833 421.5,98.1667 421.5,95.5C 422.833,95.5 424.167,95.5 425.5,95.5C 425.5,92.8333 425.5,90.1667 425.5,87.5C 426.833,87.5 428.167,87.5 429.5,87.5C 429.5,84.8333 429.5,82.1667 429.5,79.5C 430.833,79.5 432.167,79.5 433.5,79.5C 433.5,76.8333 433.5,74.1667 433.5,71.5C 435.5,71.5 437.5,71.5 439.5,71.5C 439.53,65.7679 441.03,60.4346 444,55.5C 445,56.8333 446,58.1667 447,59.5C 447.333,55.5 447.667,51.5 448,47.5C 450.285,45.0934 452.451,42.5934 454.5,40C 455.448,39.5172 456.448,39.3505 457.5,39.5C 457.5,36.8333 457.5,34.1667 457.5,31.5C 458.833,31.5 460.167,31.5 461.5,31.5C 461.5,28.8333 461.5,26.1667 461.5,23.5C 462.833,23.5 464.167,23.5 465.5,23.5C 465.5,20.8333 465.5,18.1667 465.5,15.5C 467.5,15.5 469.5,15.5 471.5,15.5C 471.336,12.8127 471.503,10.146 472,7.5C 474.415,4.98605 476.581,2.31938 478.5,-0.5 Z"/></g>
<g><path style="opacity:1" fill="#f9fdfc" d="M 363.5,96.5 C 359.019,95.3516 354.352,95.1849 349.5,96C 348.944,96.3826 348.611,96.8826 348.5,97.5C 338.641,101.515 332.808,108.848 331,119.5C 329.478,134.467 329.145,149.467 330,164.5C 329.105,180.923 336.272,191.756 351.5,197C 371.782,199.383 383.116,190.55 385.5,170.5C 386.117,170.389 386.617,170.056 387,169.5C 387.207,165.911 387.707,162.411 388.5,159C 387.833,158 387.167,157 386.5,156C 378.33,157.3 369.996,157.8 361.5,157.5C 361.5,152.5 361.5,147.5 361.5,142.5C 376.167,142.5 390.833,142.5 405.5,142.5C 405.865,154.547 405.365,166.547 404,178.5C 402.897,185.811 400.231,192.478 396,198.5C 382.091,212.746 365.258,218.08 345.5,214.5C 324.896,208.713 313.396,195.047 311,173.5C 309.395,157.157 309.228,140.824 310.5,124.5C 310.954,115.138 313.621,106.472 318.5,98.5C 320.58,94.9135 323.246,91.7468 326.5,89C 339.409,79.8498 353.742,76.8498 369.5,80C 383.92,82.622 394.42,90.4554 401,103.5C 401.72,105.112 401.554,106.612 400.5,108C 395.94,110.114 391.274,111.947 386.5,113.5C 385.558,113.392 384.725,113.059 384,112.5C 380.217,103.213 373.384,97.8794 363.5,96.5 Z"/></g>
<g><path style="opacity:1" fill="#72cdcf" d="M 363.5,96.5 C 358.438,96.2743 353.438,96.6076 348.5,97.5C 348.611,96.8826 348.944,96.3826 349.5,96C 354.352,95.1849 359.019,95.3516 363.5,96.5 Z"/></g>
<g><path style="opacity:1" fill="#038c91" d="M 310.5,124.5 C 309.228,140.824 309.395,157.157 311,173.5C 313.396,195.047 324.896,208.713 345.5,214.5C 344.761,214.369 344.094,214.536 343.5,215C 344.5,215.333 345.5,215.667 346.5,216C 354.301,215.973 361.968,216.806 369.5,218.5C 373.949,217.543 378.616,217.21 383.5,217.5C 383.5,218.5 383.5,219.5 383.5,220.5C 377.779,221.605 372.112,221.272 366.5,219.5C 365.713,220.242 365.047,221.075 364.5,222C 362.444,222.311 360.444,222.811 358.5,223.5C 355.227,222.415 351.894,222.248 348.5,223C 349.308,223.308 349.975,223.808 350.5,224.5C 348.146,226.246 347.146,228.579 347.5,231.5C 342.185,231.497 340.185,234.164 341.5,239.5C 340.167,239.5 338.833,239.5 337.5,239.5C 336.833,244.833 336.167,250.167 335.5,255.5C 333.5,255.5 331.5,255.5 329.5,255.5C 329.813,258.247 329.48,260.914 328.5,263.5C 327.833,262.833 327.167,262.167 326.5,261.5C 325.086,262.624 323.586,263.624 322,264.5C 321.178,268.876 320.178,273.209 319,277.5C 314.024,278.987 312.191,282.32 313.5,287.5C 312.448,287.351 311.448,287.517 310.5,288C 308.5,290.333 306.5,292.667 304.5,295C 305.444,297.719 305.777,300.552 305.5,303.5C 303.5,303.5 301.5,303.5 299.5,303.5C 299.143,308.933 298.143,314.266 296.5,319.5C 295.468,310.232 294.468,310.232 293.5,319.5C 292.167,319.5 290.833,319.5 289.5,319.5C 289.5,322.167 289.5,324.833 289.5,327.5C 288.167,327.5 286.833,327.5 285.5,327.5C 285.5,330.167 285.5,332.833 285.5,335.5C 284.167,335.5 282.833,335.5 281.5,335.5C 281.5,338.167 281.5,340.833 281.5,343.5C 279.097,343.393 277.264,344.393 276,346.5C 275.031,349.928 276.031,352.595 279,354.5C 285.801,350.136 286.635,350.803 281.5,356.5C 284.286,358.957 286.286,361.957 287.5,365.5C 287.444,366.737 286.944,367.737 286,368.5C 284.326,367.324 282.826,365.99 281.5,364.5C 280.41,365.391 280.41,366.391 281.5,367.5C 283.858,369.024 285.691,371.024 287,373.5C 288.57,372.642 290.237,371.975 292,371.5C 296.435,373.06 296.602,375.06 292.5,377.5C 293,377.833 293.5,378.167 294,378.5C 296.002,376.249 298.502,375.249 301.5,375.5C 301.281,374.325 301.614,373.325 302.5,372.5C 303.257,376.175 301.923,379.175 298.5,381.5C 296.38,379.991 294.713,380.324 293.5,382.5C 266.583,355.322 244.583,324.655 227.5,290.5C 257.347,281.816 275.18,262.149 281,231.5C 282.387,220.194 281.22,209.194 277.5,198.5C 277.317,196.064 277.984,193.897 279.5,192C 277.368,191.082 276.701,189.749 277.5,188C 275.591,185.587 273.257,183.753 270.5,182.5C 270.865,181.098 271.699,180.098 273,179.5C 275.654,180.821 277.654,182.821 279,185.5C 279.75,184.874 280.584,184.374 281.5,184C 279.438,182.468 278.104,180.468 277.5,178C 276.551,177.383 275.718,177.549 275,178.5C 273.209,176.487 271.875,176.487 271,178.5C 269.969,177.3 269.135,175.966 268.5,174.5C 268.818,173.353 269.484,172.519 270.5,172C 268.363,170.361 266.697,168.361 265.5,166C 265.613,164.72 266.28,163.887 267.5,163.5C 268.316,165.287 269.316,166.954 270.5,168.5C 271.167,168.167 271.833,167.833 272.5,167.5C 272.219,161.817 274.386,157.484 279,154.5C 279.483,153.552 279.649,152.552 279.5,151.5C 281.167,151.5 282.833,151.5 284.5,151.5C 284.833,146.167 285.167,140.833 285.5,135.5C 287.833,135.5 290.167,135.5 292.5,135.5C 292.5,132.833 292.5,130.167 292.5,127.5C 294.167,127.5 295.833,127.5 297.5,127.5C 297.5,124.833 297.5,122.167 297.5,119.5C 298.675,119.719 299.675,119.386 300.5,118.5C 301.432,116.205 302.265,113.871 303,111.5C 303.667,113.5 304.333,115.5 305,117.5C 305.992,133.728 306.992,150.061 308,166.5C 308.333,153.167 308.667,139.833 309,126.5C 309.278,125.584 309.778,124.918 310.5,124.5 Z"/></g>
<g><path style="opacity:1" fill="#d5f5f6" d="M 402.5,141.5 C 403.791,141.263 404.791,141.596 405.5,142.5C 390.833,142.5 376.167,142.5 361.5,142.5C 361.5,147.5 361.5,152.5 361.5,157.5C 369.996,157.8 378.33,157.3 386.5,156C 387.167,157 387.833,158 388.5,159C 387.707,162.411 387.207,165.911 387,169.5C 386.617,170.056 386.117,170.389 385.5,170.5C 385.5,166.5 385.5,162.5 385.5,158.5C 377.167,158.5 368.833,158.5 360.5,158.5C 360.5,152.833 360.5,147.167 360.5,141.5C 374.5,141.5 388.5,141.5 402.5,141.5 Z"/></g>
<g><path style="opacity:1" fill="#fbfdfd" d="M 159.5,159.5 C 178.17,159.333 196.836,159.5 215.5,160C 222.926,160.818 230.259,162.152 237.5,164C 256.004,169.681 269.337,181.181 277.5,198.5C 281.22,209.194 282.387,220.194 281,231.5C 275.18,262.149 257.347,281.816 227.5,290.5C 244.583,324.655 266.583,355.322 293.5,382.5C 301.036,389.767 310.036,394.101 320.5,395.5C 321.209,396.404 322.209,396.737 323.5,396.5C 323.5,399.833 323.5,403.167 323.5,406.5C 319.958,407.675 316.291,408.341 312.5,408.5C 301.615,408.643 290.948,407.309 280.5,404.5C 275.475,403.155 270.808,400.988 266.5,398C 260.303,392.969 254.636,387.469 249.5,381.5C 229.348,354.553 211.182,326.219 195,296.5C 188.59,295.522 182.09,295.189 175.5,295.5C 171.833,295.5 168.167,295.5 164.5,295.5C 164.333,320.836 164.5,346.169 165,371.5C 165.259,375.89 166.426,379.89 168.5,383.5C 169.927,388.405 173.261,391.238 178.5,392C 185.842,392.834 193.175,393.668 200.5,394.5C 200.5,398.5 200.5,402.5 200.5,406.5C 189.516,405.751 178.516,405.417 167.5,405.5C 146.329,404.382 124.996,404.382 103.5,405.5C 103.5,401.833 103.5,398.167 103.5,394.5C 111.444,393.764 119.11,391.931 126.5,389C 131.122,384.152 133.622,378.319 134,371.5C 134.829,311.763 134.662,252.096 133.5,192.5C 133.211,181.877 127.877,175.877 117.5,174.5C 113.242,173.598 108.909,172.598 104.5,171.5C 104.5,168.167 104.5,164.833 104.5,161.5C 123.008,161.83 141.341,161.497 159.5,160.5C 159.5,160.167 159.5,159.833 159.5,159.5 Z"/></g>
<g><path style="opacity:1" fill="#008488" d="M 511.5,159.5 C 511.5,175.5 511.5,191.5 511.5,207.5C 509.631,209.635 508.964,212.302 509.5,215.5C 507.5,215.5 505.5,215.5 503.5,215.5C 502.833,220.833 502.167,226.167 501.5,231.5C 499.5,231.5 497.5,231.5 495.5,231.5C 495.5,234.167 495.5,236.833 495.5,239.5C 494.167,239.5 492.833,239.5 491.5,239.5C 491.5,242.167 491.5,244.833 491.5,247.5C 489.5,247.5 487.5,247.5 485.5,247.5C 485.5,250.167 485.5,252.833 485.5,255.5C 484.167,255.5 482.833,255.5 481.5,255.5C 481.5,258.167 481.5,260.833 481.5,263.5C 480.448,263.351 479.448,263.517 478.5,264C 476.451,266.593 474.285,269.093 472,271.5C 471.503,274.146 471.336,276.813 471.5,279.5C 469.833,279.5 468.167,279.5 466.5,279.5C 466.5,282.167 466.5,284.833 466.5,287.5C 465.5,287.5 464.5,287.5 463.5,287.5C 463.5,290.167 463.5,292.833 463.5,295.5C 461.5,295.5 459.5,295.5 457.5,295.5C 457.813,298.247 457.48,300.914 456.5,303.5C 454.493,306.265 452.326,308.932 450,311.5C 449.503,314.146 449.336,316.813 449.5,319.5C 447.5,319.5 445.5,319.5 443.5,319.5C 443.5,322.167 443.5,324.833 443.5,327.5C 442.167,327.5 440.833,327.5 439.5,327.5C 439.5,330.167 439.5,332.833 439.5,335.5C 438.167,335.5 436.833,335.5 435.5,335.5C 435.5,338.167 435.5,340.833 435.5,343.5C 433.5,343.5 431.5,343.5 429.5,343.5C 429.5,346.167 429.5,348.833 429.5,351.5C 428.167,351.5 426.833,351.5 425.5,351.5C 425.5,354.167 425.5,356.833 425.5,359.5C 424.167,359.5 422.833,359.5 421.5,359.5C 421.5,362.167 421.5,364.833 421.5,367.5C 420.167,367.5 418.833,367.5 417.5,367.5C 417.5,370.167 417.5,372.833 417.5,375.5C 415.5,375.5 413.5,375.5 411.5,375.5C 410.833,380.833 410.167,386.167 409.5,391.5C 407.5,391.5 405.5,391.5 403.5,391.5C 403.143,396.933 402.143,402.266 400.5,407.5C 398.864,396.913 397.864,396.913 397.5,407.5C 396.167,407.5 394.833,407.5 393.5,407.5C 393.5,410.167 393.5,412.833 393.5,415.5C 392.167,415.5 390.833,415.5 389.5,415.5C 389.49,420.915 388.823,426.248 387.5,431.5C 386.52,428.914 386.187,426.247 386.5,423.5C 385.5,423.5 384.5,423.5 383.5,423.5C 382.833,428.833 382.167,434.167 381.5,439.5C 379.5,439.5 377.5,439.5 375.5,439.5C 375.5,442.167 375.5,444.833 375.5,447.5C 374.167,447.5 372.833,447.5 371.5,447.5C 371.5,450.167 371.5,452.833 371.5,455.5C 369.5,455.5 367.5,455.5 365.5,455.5C 365.49,460.915 364.823,466.248 363.5,471.5C 362.52,468.914 362.187,466.247 362.5,463.5C 361.5,463.5 360.5,463.5 359.5,463.5C 358.833,468.833 358.167,474.167 357.5,479.5C 355.5,479.5 353.5,479.5 351.5,479.5C 351.664,482.187 351.497,484.854 351,487.5C 348.715,489.907 346.549,492.407 344.5,495C 343.552,495.483 342.552,495.649 341.5,495.5C 341.223,498.448 341.556,501.281 342.5,504C 340.371,506.439 338.371,508.939 336.5,511.5C 329.167,511.5 321.833,511.5 314.5,511.5C 315.277,508.888 316.944,507.055 319.5,506C 316.854,505.503 314.187,505.336 311.5,505.5C 311.5,502.167 311.5,498.833 311.5,495.5C 314.167,495.5 316.833,495.5 319.5,495.5C 319.5,490.167 319.5,484.833 319.5,479.5C 320.978,479.762 322.311,479.429 323.5,478.5C 324.034,476.386 325.034,474.552 326.5,473C 331.964,472.223 333.964,469.057 332.5,463.5C 333.5,463.5 334.5,463.5 335.5,463.5C 335.5,460.167 335.5,456.833 335.5,453.5C 340.222,453.848 344.889,454.515 349.5,455.5C 349.5,454.5 349.5,453.5 349.5,452.5C 347.5,452.5 345.5,452.5 343.5,452.5C 343.5,450.833 343.5,449.167 343.5,447.5C 344.833,447.5 346.167,447.5 347.5,447.5C 347.5,442.167 347.5,436.833 347.5,431.5C 348.833,431.5 350.167,431.5 351.5,431.5C 351.5,428.833 351.5,426.167 351.5,423.5C 354.167,423.5 356.833,423.5 359.5,423.5C 359.5,420.833 359.5,418.167 359.5,415.5C 362.167,415.5 364.833,415.5 367.5,415.5C 367.5,410.167 367.5,404.833 367.5,399.5C 368.833,399.5 370.167,399.5 371.5,399.5C 371.5,402.167 371.5,404.833 371.5,407.5C 373.5,407.5 375.5,407.5 377.5,407.5C 377.5,404.833 377.5,402.167 377.5,399.5C 375.801,399.66 374.134,399.494 372.5,399C 372.78,394.551 375.113,392.385 379.5,392.5C 379.5,389.5 379.5,386.5 379.5,383.5C 380.833,383.5 382.167,383.5 383.5,383.5C 383.5,380.5 383.5,377.5 383.5,374.5C 384.833,374.5 386.167,374.5 387.5,374.5C 387.183,377.572 387.516,380.572 388.5,383.5C 389.833,372.833 391.167,372.833 392.5,383.5C 395.042,372.992 396.042,362.325 395.5,351.5C 397.467,351.739 399.301,351.406 401,350.5C 404.532,345.05 406.532,339.05 407,332.5C 407.785,330.714 408.951,329.214 410.5,328C 414.953,326.891 416.62,324.058 415.5,319.5C 416.5,319.5 417.5,319.5 418.5,319.5C 418.34,317.801 418.506,316.134 419,314.5C 423.949,312.266 426.449,313.933 426.5,319.5C 427.48,316.914 427.813,314.247 427.5,311.5C 429.5,311.5 431.5,311.5 433.5,311.5C 433.399,307.258 432.732,303.091 431.5,299C 432.451,292.845 434.451,287.178 437.5,282C 438.793,281.51 440.127,281.343 441.5,281.5C 441.5,283.5 441.5,285.5 441.5,287.5C 442.833,287.5 444.167,287.5 445.5,287.5C 445.5,284.833 445.5,282.167 445.5,279.5C 444.5,279.5 443.5,279.5 442.5,279.5C 442.5,276.833 442.5,274.167 442.5,271.5C 444.167,271.5 445.833,271.5 447.5,271.5C 447.5,266.167 447.5,260.833 447.5,255.5C 449.833,255.5 452.167,255.5 454.5,255.5C 455.303,250.524 458.136,247.191 463,245.5C 463.499,240.845 463.666,236.179 463.5,231.5C 466.167,231.5 468.833,231.5 471.5,231.5C 471.5,228.833 471.5,226.167 471.5,223.5C 475.5,223.5 479.5,223.5 483.5,223.5C 483.664,220.813 483.497,218.146 483,215.5C 482,216.167 481,216.833 480,217.5C 479.502,214.183 479.335,210.85 479.5,207.5C 481.167,207.5 482.833,207.5 484.5,207.5C 484.338,205.473 484.505,203.473 485,201.5C 486.667,200.167 488.333,198.833 490,197.5C 490.495,195.527 490.662,193.527 490.5,191.5C 492.167,191.5 493.833,191.5 495.5,191.5C 495.177,187.774 495.511,184.107 496.5,180.5C 498.217,179.332 498.884,177.665 498.5,175.5C 501.167,175.5 503.833,175.5 506.5,175.5C 506.662,177.527 506.495,179.527 506,181.5C 504.164,183.131 504.664,183.798 507.5,183.5C 507.5,175.5 507.5,167.5 507.5,159.5C 508.833,159.5 510.167,159.5 511.5,159.5 Z"/></g>
<g><path style="opacity:1" fill="#d9fdfe" d="M 159.5,160.5 C 141.341,161.497 123.008,161.83 104.5,161.5C 104.5,164.833 104.5,168.167 104.5,171.5C 103.518,168.038 103.185,164.371 103.5,160.5C 122.167,160.5 140.833,160.5 159.5,160.5 Z"/></g>
<g><path style="opacity:1" fill="#01969c" d="M 117.5,174.5 C 127.877,175.877 133.211,181.877 133.5,192.5C 131.133,191.921 129.3,190.588 128,188.5C 125.917,192.257 123.417,195.757 120.5,199C 121.783,201.795 121.783,204.628 120.5,207.5C 119.833,204.833 119.167,202.167 118.5,199.5C 116.857,204.734 115.857,210.067 115.5,215.5C 113.5,215.5 111.5,215.5 109.5,215.5C 109.5,218.167 109.5,220.833 109.5,223.5C 108.167,223.5 106.833,223.5 105.5,223.5C 105.5,226.167 105.5,228.833 105.5,231.5C 104.448,231.351 103.448,231.517 102.5,232C 100.5,234.333 98.5,236.667 96.5,239C 95.552,239.483 94.552,239.649 93.5,239.5C 92.8333,244.833 92.1667,250.167 91.5,255.5C 89.8008,255.34 88.1341,255.506 86.5,256C 84.5,258.333 82.5,260.667 80.5,263C 81.4438,265.719 81.7771,268.552 81.5,271.5C 80.448,271.351 79.448,271.517 78.5,272C 76.5,274.333 74.5,276.667 72.5,279C 73.7825,281.795 73.7825,284.628 72.5,287.5C 71.7227,281.618 69.7227,281.451 66.5,287C 67.8333,287.333 69.1667,287.667 70.5,288C 68.5,290.333 66.5,292.667 64.5,295C 65.7825,297.795 65.7825,300.628 64.5,303.5C 63.7227,297.618 61.7227,297.451 58.5,303C 59.1667,303.333 59.8333,303.667 60.5,304C 59.6667,306.167 58.1667,307.667 56,308.5C 55.6667,310.5 55.3333,312.5 55,314.5C 50.0708,317.4 48.2374,321.733 49.5,327.5C 48.448,327.351 47.448,327.517 46.5,328C 44.5,330.333 42.5,332.667 40.5,335C 41.4438,337.719 41.7771,340.552 41.5,343.5C 39.5,343.5 37.5,343.5 35.5,343.5C 35.5,346.167 35.5,348.833 35.5,351.5C 34.1667,351.5 32.8333,351.5 31.5,351.5C 31.6495,352.552 31.4828,353.552 31,354.5C 26.0708,357.4 24.2374,361.733 25.5,367.5C 23.5,367.5 21.5,367.5 19.5,367.5C 18.8333,372.833 18.1667,378.167 17.5,383.5C 15.5,383.5 13.5,383.5 11.5,383.5C 11.143,388.933 10.143,394.266 8.5,399.5C 5.78773,397.74 2.78773,397.073 -0.5,397.5C -0.5,378.5 -0.5,359.5 -0.5,340.5C 0.72065,339.972 1.88732,339.305 3,338.5C 4.36338,335.41 5.53004,332.244 6.5,329C 9.51478,326.318 12.1814,323.318 14.5,320C 13.2175,317.205 13.2175,314.372 14.5,311.5C 15.1667,314.167 15.8333,316.833 16.5,319.5C 17.7825,316.628 17.7825,313.795 16.5,311C 18.5,308.667 20.5,306.333 22.5,304C 23.448,303.517 24.448,303.351 25.5,303.5C 24.2374,297.733 26.0708,293.4 31,290.5C 31.3333,288.5 31.6667,286.5 32,284.5C 34.3333,283.5 36,281.833 37,279.5C 37.8555,268.893 39.0222,268.893 40.5,279.5C 41.7825,276.628 41.7825,273.795 40.5,271C 42.5,268.667 44.5,266.333 46.5,264C 47.448,263.517 48.448,263.351 49.5,263.5C 49.5,260.833 49.5,258.167 49.5,255.5C 50.8333,255.5 52.1667,255.5 53.5,255.5C 53.5,252.833 53.5,250.167 53.5,247.5C 54.8333,247.5 56.1667,247.5 57.5,247.5C 57.2148,245.712 57.5481,244.045 58.5,242.5C 59.7989,241.91 60.6322,240.91 61,239.5C 61.4974,236.854 61.6641,234.187 61.5,231.5C 62.552,231.649 63.552,231.483 64.5,231C 66.5,228.667 68.5,226.333 70.5,224C 69.2175,221.205 69.2175,218.372 70.5,215.5C 71.1667,218.167 71.8333,220.833 72.5,223.5C 73.7825,220.628 73.7825,217.795 72.5,215C 74.5,212.667 76.5,210.333 78.5,208C 79.448,207.517 80.448,207.351 81.5,207.5C 81.5,204.833 81.5,202.167 81.5,199.5C 82.8333,199.5 84.1667,199.5 85.5,199.5C 85.5,196.833 85.5,194.167 85.5,191.5C 86.552,191.649 87.552,191.483 88.5,191C 90.5,188.667 92.5,186.333 94.5,184C 92.6987,179.536 93.6987,175.869 97.5,173C 96.2941,171.982 96.6274,171.482 98.5,171.5C 102.84,173.8 107.507,175.133 112.5,175.5C 114.833,180 117.167,184.5 119.5,189C 121.076,188.848 122.409,188.015 123.5,186.5C 124.736,187.246 126.07,187.579 127.5,187.5C 127.5,186.5 127.5,185.5 127.5,184.5C 121.121,185.297 117.455,182.464 116.5,176C 116.57,175.235 116.903,174.735 117.5,174.5 Z"/></g>
<g><path style="opacity:1" fill="#049196" d="M 164.5,177.5 C 178.837,177.333 193.171,177.5 207.5,178C 233.98,182.48 247.646,198.147 248.5,225C 248.055,253.92 233.722,271.253 205.5,277C 191.837,277.5 178.171,277.667 164.5,277.5C 164.5,244.167 164.5,210.833 164.5,177.5 Z"/></g>
<g><path style="opacity:1" fill="#019398" d="M 133.5,192.5 C 134.662,252.096 134.829,311.763 134,371.5C 133.622,378.319 131.122,384.152 126.5,389C 119.11,391.931 111.444,393.764 103.5,394.5C 103.5,398.167 103.5,401.833 103.5,405.5C 105.607,406.468 107.941,406.802 110.5,406.5C 108.206,408.041 108.206,409.375 110.5,410.5C 115.111,409.39 119.778,409.223 124.5,410C 122.833,410.333 121.167,410.667 119.5,411C 121.833,411.333 124.167,411.667 126.5,412C 121.467,412.171 116.467,412.671 111.5,413.5C 119.145,414.331 126.812,414.831 134.5,415C 131.518,415.498 128.518,415.665 125.5,415.5C 125.664,418.187 125.497,420.854 125,423.5C 124.632,424.91 123.799,425.91 122.5,426.5C 121.548,428.045 121.215,429.712 121.5,431.5C 120.448,431.351 119.448,431.517 118.5,432C 116.5,434.333 114.5,436.667 112.5,439C 111.552,439.483 110.552,439.649 109.5,439.5C 109.223,442.448 109.556,445.281 110.5,448C 108.5,450.333 106.5,452.667 104.5,455C 103.552,455.483 102.552,455.649 101.5,455.5C 100.833,460.833 100.167,466.167 99.5,471.5C 98.1667,471.5 96.8333,471.5 95.5,471.5C 95.6495,472.552 95.4828,473.552 95,474.5C 92.8333,475.333 91.3333,476.833 90.5,479C 93.0443,480.099 93.0443,481.265 90.5,482.5C 89.5481,484.045 89.2148,485.712 89.5,487.5C 88.448,487.351 87.448,487.517 86.5,488C 84.5,490.333 82.5,492.667 80.5,495C 79.552,495.483 78.552,495.649 77.5,495.5C 77.2229,498.448 77.5562,501.281 78.5,504C 76.3714,506.439 74.3714,508.939 72.5,511.5C 48.1667,511.5 23.8333,511.5 -0.5,511.5C -0.5,473.5 -0.5,435.5 -0.5,397.5C 2.78773,397.073 5.78773,397.74 8.5,399.5C 10.143,394.266 11.143,388.933 11.5,383.5C 13.5,383.5 15.5,383.5 17.5,383.5C 18.1667,378.167 18.8333,372.833 19.5,367.5C 21.5,367.5 23.5,367.5 25.5,367.5C 24.2374,361.733 26.0708,357.4 31,354.5C 31.4828,353.552 31.6495,352.552 31.5,351.5C 32.8333,351.5 34.1667,351.5 35.5,351.5C 35.5,348.833 35.5,346.167 35.5,343.5C 37.5,343.5 39.5,343.5 41.5,343.5C 41.7771,340.552 41.4438,337.719 40.5,335C 42.5,332.667 44.5,330.333 46.5,328C 47.448,327.517 48.448,327.351 49.5,327.5C 48.2374,321.733 50.0708,317.4 55,314.5C 55.3333,312.5 55.6667,310.5 56,308.5C 58.1667,307.667 59.6667,306.167 60.5,304C 59.8333,303.667 59.1667,303.333 58.5,303C 61.7227,297.451 63.7227,297.618 64.5,303.5C 65.7825,300.628 65.7825,297.795 64.5,295C 66.5,292.667 68.5,290.333 70.5,288C 69.1667,287.667 67.8333,287.333 66.5,287C 69.7227,281.451 71.7227,281.618 72.5,287.5C 73.7825,284.628 73.7825,281.795 72.5,279C 74.5,276.667 76.5,274.333 78.5,272C 79.448,271.517 80.448,271.351 81.5,271.5C 81.7771,268.552 81.4438,265.719 80.5,263C 82.5,260.667 84.5,258.333 86.5,256C 88.1341,255.506 89.8008,255.34 91.5,255.5C 92.1667,250.167 92.8333,244.833 93.5,239.5C 94.552,239.649 95.552,239.483 96.5,239C 98.5,236.667 100.5,234.333 102.5,232C 103.448,231.517 104.448,231.351 105.5,231.5C 105.5,228.833 105.5,226.167 105.5,223.5C 106.833,223.5 108.167,223.5 109.5,223.5C 109.5,220.833 109.5,218.167 109.5,215.5C 111.5,215.5 113.5,215.5 115.5,215.5C 115.857,210.067 116.857,204.734 118.5,199.5C 119.167,202.167 119.833,204.833 120.5,207.5C 121.783,204.628 121.783,201.795 120.5,199C 123.417,195.757 125.917,192.257 128,188.5C 129.3,190.588 131.133,191.921 133.5,192.5 Z"/></g>
<g><path style="opacity:1" fill="#008186" d="M 511.5,207.5 C 511.5,266.167 511.5,324.833 511.5,383.5C 506.287,388.23 501.287,393.23 496.5,398.5C 494.955,399.452 493.288,399.785 491.5,399.5C 491.5,404.833 491.5,410.167 491.5,415.5C 490.5,415.5 489.5,415.5 488.5,415.5C 487.697,420.476 484.864,423.809 480,425.5C 479.667,429.5 479.333,433.5 479,437.5C 475.394,438.774 472.727,441.107 471,444.5C 470.607,446.199 471.107,447.699 472.5,449C 471.013,453.154 468.18,455.987 464,457.5C 463.759,460.289 463.092,462.956 462,465.5C 457.667,469.5 453.333,473.5 449,477.5C 447.59,483.379 447.09,489.379 447.5,495.5C 444.833,495.5 442.167,495.5 439.5,495.5C 439.5,500.833 439.5,506.167 439.5,511.5C 405.167,511.5 370.833,511.5 336.5,511.5C 338.371,508.939 340.371,506.439 342.5,504C 341.556,501.281 341.223,498.448 341.5,495.5C 342.552,495.649 343.552,495.483 344.5,495C 346.549,492.407 348.715,489.907 351,487.5C 351.497,484.854 351.664,482.187 351.5,479.5C 353.5,479.5 355.5,479.5 357.5,479.5C 358.167,474.167 358.833,468.833 359.5,463.5C 360.5,463.5 361.5,463.5 362.5,463.5C 362.187,466.247 362.52,468.914 363.5,471.5C 364.823,466.248 365.49,460.915 365.5,455.5C 367.5,455.5 369.5,455.5 371.5,455.5C 371.5,452.833 371.5,450.167 371.5,447.5C 372.833,447.5 374.167,447.5 375.5,447.5C 375.5,444.833 375.5,442.167 375.5,439.5C 377.5,439.5 379.5,439.5 381.5,439.5C 382.167,434.167 382.833,428.833 383.5,423.5C 384.5,423.5 385.5,423.5 386.5,423.5C 386.187,426.247 386.52,428.914 387.5,431.5C 388.823,426.248 389.49,420.915 389.5,415.5C 390.833,415.5 392.167,415.5 393.5,415.5C 393.5,412.833 393.5,410.167 393.5,407.5C 394.833,407.5 396.167,407.5 397.5,407.5C 397.864,396.913 398.864,396.913 400.5,407.5C 402.143,402.266 403.143,396.933 403.5,391.5C 405.5,391.5 407.5,391.5 409.5,391.5C 410.167,386.167 410.833,380.833 411.5,375.5C 413.5,375.5 415.5,375.5 417.5,375.5C 417.5,372.833 417.5,370.167 417.5,367.5C 418.833,367.5 420.167,367.5 421.5,367.5C 421.5,364.833 421.5,362.167 421.5,359.5C 422.833,359.5 424.167,359.5 425.5,359.5C 425.5,356.833 425.5,354.167 425.5,351.5C 426.833,351.5 428.167,351.5 429.5,351.5C 429.5,348.833 429.5,346.167 429.5,343.5C 431.5,343.5 433.5,343.5 435.5,343.5C 435.5,340.833 435.5,338.167 435.5,335.5C 436.833,335.5 438.167,335.5 439.5,335.5C 439.5,332.833 439.5,330.167 439.5,327.5C 440.833,327.5 442.167,327.5 443.5,327.5C 443.5,324.833 443.5,322.167 443.5,319.5C 445.5,319.5 447.5,319.5 449.5,319.5C 449.336,316.813 449.503,314.146 450,311.5C 452.326,308.932 454.493,306.265 456.5,303.5C 457.48,300.914 457.813,298.247 457.5,295.5C 459.5,295.5 461.5,295.5 463.5,295.5C 463.5,292.833 463.5,290.167 463.5,287.5C 464.5,287.5 465.5,287.5 466.5,287.5C 466.5,284.833 466.5,282.167 466.5,279.5C 468.167,279.5 469.833,279.5 471.5,279.5C 471.336,276.813 471.503,274.146 472,271.5C 474.285,269.093 476.451,266.593 478.5,264C 479.448,263.517 480.448,263.351 481.5,263.5C 481.5,260.833 481.5,258.167 481.5,255.5C 482.833,255.5 484.167,255.5 485.5,255.5C 485.5,252.833 485.5,250.167 485.5,247.5C 487.5,247.5 489.5,247.5 491.5,247.5C 491.5,244.833 491.5,242.167 491.5,239.5C 492.833,239.5 494.167,239.5 495.5,239.5C 495.5,236.833 495.5,234.167 495.5,231.5C 497.5,231.5 499.5,231.5 501.5,231.5C 502.167,226.167 502.833,220.833 503.5,215.5C 505.5,215.5 507.5,215.5 509.5,215.5C 508.964,212.302 509.631,209.635 511.5,207.5 Z"/></g>
<g><path style="opacity:1" fill="#088f95" d="M 175.5,295.5 C 175.5,296.5 175.5,297.5 175.5,298.5C 173.174,297.849 170.841,297.182 168.5,296.5C 164.765,297.267 164.765,298.434 168.5,300C 176.159,300.5 183.826,300.666 191.5,300.5C 191.343,299.127 191.51,297.793 192,296.5C 193.438,297.9 194.271,299.567 194.5,301.5C 193.325,301.281 192.325,301.614 191.5,302.5C 195.172,306.653 196.839,311.32 196.5,316.5C 193.891,313.617 192.058,310.283 191,306.5C 186.071,309.4 184.237,313.733 185.5,319.5C 184.448,319.351 183.448,319.517 182.5,320C 180.5,322.333 178.5,324.667 176.5,327C 177.444,329.719 177.777,332.552 177.5,335.5C 176.5,335.5 175.5,335.5 174.5,335.5C 173.786,346.544 173.786,357.544 174.5,368.5C 173.77,371.109 173.27,373.776 173,376.5C 172.667,376.167 172.333,375.833 172,375.5C 170.521,351.434 170.021,327.434 170.5,303.5C 171.873,303.657 173.207,303.49 174.5,303C 172.167,302.333 169.833,302.333 167.5,303C 168.805,307.918 169.471,313.085 169.5,318.5C 168.981,335.402 168.814,352.402 169,369.5C 170.023,370.6 170.523,371.933 170.5,373.5C 169.233,376.705 168.566,380.038 168.5,383.5C 166.426,379.89 165.259,375.89 165,371.5C 164.5,346.169 164.333,320.836 164.5,295.5C 168.167,295.5 171.833,295.5 175.5,295.5 Z"/></g>
<g><path style="opacity:1" fill="#018d91" d="M 175.5,295.5 C 182.09,295.189 188.59,295.522 195,296.5C 211.182,326.219 229.348,354.553 249.5,381.5C 248.033,380.708 246.7,380.708 245.5,381.5C 245.11,384.767 245.61,388.101 247,391.5C 250.156,392.437 252.989,393.937 255.5,396C 251.676,396.765 248.009,397.931 244.5,399.5C 242.857,404.734 241.857,410.067 241.5,415.5C 239.5,415.5 237.5,415.5 235.5,415.5C 235.5,418.167 235.5,420.833 235.5,423.5C 233.5,423.5 231.5,423.5 229.5,423.5C 229.223,426.448 229.556,429.281 230.5,432C 228.5,434.333 226.5,436.667 224.5,439C 223.552,439.483 222.552,439.649 221.5,439.5C 221.5,442.167 221.5,444.833 221.5,447.5C 220.167,447.5 218.833,447.5 217.5,447.5C 217.813,450.247 217.48,452.914 216.5,455.5C 214.959,458.193 213.626,460.859 212.5,463.5C 211.5,463.5 210.5,463.5 209.5,463.5C 209.5,466.167 209.5,468.833 209.5,471.5C 208.448,471.351 207.448,471.517 206.5,472C 204.5,474.333 202.5,476.667 200.5,479C 199.552,479.483 198.552,479.649 197.5,479.5C 196.833,484.833 196.167,490.167 195.5,495.5C 194.167,495.5 192.833,495.5 191.5,495.5C 191.649,496.552 191.483,497.552 191,498.5C 188.833,499.333 187.333,500.833 186.5,503C 187.308,503.308 187.975,503.808 188.5,504.5C 186.262,506.258 185.262,508.592 185.5,511.5C 147.833,511.5 110.167,511.5 72.5,511.5C 74.3714,508.939 76.3714,506.439 78.5,504C 77.5562,501.281 77.2229,498.448 77.5,495.5C 78.552,495.649 79.552,495.483 80.5,495C 82.5,492.667 84.5,490.333 86.5,488C 87.448,487.517 88.448,487.351 89.5,487.5C 89.2148,485.712 89.5481,484.045 90.5,482.5C 93.0443,481.265 93.0443,480.099 90.5,479C 91.3333,476.833 92.8333,475.333 95,474.5C 95.4828,473.552 95.6495,472.552 95.5,471.5C 96.8333,471.5 98.1667,471.5 99.5,471.5C 100.167,466.167 100.833,460.833 101.5,455.5C 102.552,455.649 103.552,455.483 104.5,455C 106.5,452.667 108.5,450.333 110.5,448C 109.556,445.281 109.223,442.448 109.5,439.5C 110.552,439.649 111.552,439.483 112.5,439C 114.5,436.667 116.5,434.333 118.5,432C 119.448,431.517 120.448,431.351 121.5,431.5C 121.215,429.712 121.548,428.045 122.5,426.5C 123.799,425.91 124.632,424.91 125,423.5C 125.497,420.854 125.664,418.187 125.5,415.5C 128.518,415.665 131.518,415.498 134.5,415C 126.812,414.831 119.145,414.331 111.5,413.5C 116.467,412.671 121.467,412.171 126.5,412C 124.167,411.667 121.833,411.333 119.5,411C 121.167,410.667 122.833,410.333 124.5,410C 119.778,409.223 115.111,409.39 110.5,410.5C 108.206,409.375 108.206,408.041 110.5,406.5C 129.488,405.678 148.488,405.345 167.5,405.5C 178.516,405.417 189.516,405.751 200.5,406.5C 200.5,402.5 200.5,398.5 200.5,394.5C 193.175,393.668 185.842,392.834 178.5,392C 173.261,391.238 169.927,388.405 168.5,383.5C 168.566,380.038 169.233,376.705 170.5,373.5C 170.523,371.933 170.023,370.6 169,369.5C 168.814,352.402 168.981,335.402 169.5,318.5C 169.471,313.085 168.805,307.918 167.5,303C 169.833,302.333 172.167,302.333 174.5,303C 173.207,303.49 171.873,303.657 170.5,303.5C 170.021,327.434 170.521,351.434 172,375.5C 172.333,375.833 172.667,376.167 173,376.5C 173.27,373.776 173.77,371.109 174.5,368.5C 173.786,357.544 173.786,346.544 174.5,335.5C 175.5,335.5 176.5,335.5 177.5,335.5C 177.777,332.552 177.444,329.719 176.5,327C 178.5,324.667 180.5,322.333 182.5,320C 183.448,319.517 184.448,319.351 185.5,319.5C 184.237,313.733 186.071,309.4 191,306.5C 192.058,310.283 193.891,313.617 196.5,316.5C 196.839,311.32 195.172,306.653 191.5,302.5C 192.325,301.614 193.325,301.281 194.5,301.5C 194.271,299.567 193.438,297.9 192,296.5C 191.51,297.793 191.343,299.127 191.5,300.5C 183.826,300.666 176.159,300.5 168.5,300C 164.765,298.434 164.765,297.267 168.5,296.5C 170.841,297.182 173.174,297.849 175.5,298.5C 175.5,297.5 175.5,296.5 175.5,295.5 Z"/></g>
<g><path style="opacity:1" fill="#007f82" d="M 511.5,383.5 C 511.5,426.167 511.5,468.833 511.5,511.5C 487.5,511.5 463.5,511.5 439.5,511.5C 439.5,506.167 439.5,500.833 439.5,495.5C 442.167,495.5 444.833,495.5 447.5,495.5C 447.09,489.379 447.59,483.379 449,477.5C 453.333,473.5 457.667,469.5 462,465.5C 463.092,462.956 463.759,460.289 464,457.5C 468.18,455.987 471.013,453.154 472.5,449C 471.107,447.699 470.607,446.199 471,444.5C 472.727,441.107 475.394,438.774 479,437.5C 479.333,433.5 479.667,429.5 480,425.5C 484.864,423.809 487.697,420.476 488.5,415.5C 489.5,415.5 490.5,415.5 491.5,415.5C 491.5,410.167 491.5,404.833 491.5,399.5C 493.288,399.785 494.955,399.452 496.5,398.5C 501.287,393.23 506.287,388.23 511.5,383.5 Z"/></g>
<g><path style="opacity:1" fill="#9ad5dd" d="M 320.5,395.5 C 321.833,395.5 323.167,395.5 324.5,395.5C 324.815,399.371 324.482,403.038 323.5,406.5C 323.5,403.167 323.5,399.833 323.5,396.5C 322.209,396.737 321.209,396.404 320.5,395.5 Z"/></g>
<g><path style="opacity:1" fill="#82c9cb" d="M 167.5,405.5 C 148.488,405.345 129.488,405.678 110.5,406.5C 107.941,406.802 105.607,406.468 103.5,405.5C 124.996,404.382 146.329,404.382 167.5,405.5 Z"/></g>
<g><path style="opacity:1" fill="#c1eaea" d="M 280.5,404.5 C 290.948,407.309 301.615,408.643 312.5,408.5C 307.015,409.652 301.349,409.818 295.5,409C 290.061,408.562 285.061,407.062 280.5,404.5 Z"/></g>
</svg>
